<svg width="50" height="50" viewBox="0 0 50 50" fill="none" xmlns="http://www.w3.org/2000/svg">
<path d="M47.351 2.64766C45.9783 1.27423 43.8135 1.21095 42.344 2.41954L41.6963 1.77188L39.9237 3.55391L40.0737 3.70548L39.444 4.29454L39.301 4.15704C37.9502 2.8047 36.3932 1.40235 34.3205 2.23985C31.501 3.38282 30.1541 9.48438 28.5948 11.793C27.2338 13.8008 23.8198 15.9274 20.7674 17.5297C20.9198 17.6805 21.2205 18.132 21.4205 18.1828C22.269 17.8086 23.133 17.475 23.9729 17.0844C25.726 16.2695 27.4323 15.3203 28.9401 14.1008C32.026 11.6031 33.2698 4.11407 35.4721 3.9672C36.3932 3.90079 37.2924 4.75626 38.0549 5.59376L22.1049 20.5078L22.7346 21.1375L7.34944 36.5492L2.51506 45.0805L3.15413 45.7195L1.78069 47.5422C1.54709 47.8172 1.49241 48.1781 1.65881 48.3445C1.82209 48.5063 2.18381 48.4516 2.45647 48.2164L4.28147 46.8477L4.91975 47.4852L13.451 42.6516L28.8377 27.2399L28.8502 27.2524L29.4924 27.8945L46.2838 9.91407L46.4549 10.0852L48.226 8.30313L47.5799 7.65626C48.7893 6.18673 48.7244 4.02188 47.351 2.64766ZM5.05256 46.5133L3.48772 44.9484L7.52288 37.8281L12.1729 42.4789L5.05256 46.5133ZM29.4932 26.7906L23.2135 20.5102L24.3838 19.3539L30.6565 25.6258L29.4932 26.7906ZM46.4533 8.97891L41.0276 3.55313L41.6979 2.87891L47.1221 8.3047L46.4533 8.97891Z" fill="url(#paint0_linear_327_228)"/>
<defs>
<linearGradient id="paint0_linear_327_228" x1="1.5625" y1="1.56226" x2="40.4317" y2="2.37544" gradientUnits="userSpaceOnUse">
<stop stop-color="#6400B3"/>
<stop offset="1" stop-color="#1596DF"/>
</linearGradient>
</defs>
</svg>
