<svg xmlns="http://www.w3.org/2000/svg" width="50" height="50" fill="none" viewBox="0 0 50 50"><path fill="url(#paint0_linear_327_234)" d="M36.0055 7.26567L35.3742 3.65161L32.8898 6.35005L29.2586 5.83442L31.0555 9.02974L29.4461 12.3219L33.0398 11.5985L35.6758 14.15L36.0977 10.5063L39.3398 8.78755L36.0039 7.26255L36.0055 7.26567ZM40.9648 28.4344L40.6805 26.4813L39.3023 27.8954L37.357 27.561L38.2758 29.3063L37.357 31.0532L39.3023 30.7188L40.6805 32.1344L40.9648 30.1813L42.7352 29.3063L40.9648 28.4344ZM7.68828 11.9875L9.16953 11.4063L10.4883 12.2969L10.3914 10.7079L11.6445 9.72817L10.1055 9.32817L9.55859 7.83286L8.70547 9.17661L7.11641 9.2313L8.12734 10.4594L7.68828 11.9875ZM16.3133 16.4141L17.907 14.7016L20.2195 15.0422L19.0852 12.9954L20.1273 10.9016L17.8305 11.3485L16.1617 9.71099L15.8773 12.0344L13.8023 13.1172L15.9242 14.1047L16.3148 16.4125L16.3133 16.4141ZM26.9289 19.8766C26.0102 19.3032 25.0977 18.9125 24.2852 18.7391C23.5164 18.5985 22.6602 18.5047 22.0586 19.3235L4.00391 48.1063H14.4414L29.5508 24.0188C30.0227 23.1188 29.5664 22.3938 29.107 21.7579C28.5992 21.1063 27.8477 20.4532 26.9289 19.8766ZM21.2727 34.2766C20.8742 33.6579 20.1164 32.9375 19.1258 32.3172C18.1383 31.6985 17.1602 31.3266 16.4289 31.2391L23.3352 20.2204C23.4367 20.2 23.7461 20.1891 24.1852 20.3235C24.7258 20.4672 25.4117 20.7688 26.0992 21.2016C26.8867 21.6907 27.518 22.2594 27.8695 22.7172C28.0059 22.8791 28.1118 23.0644 28.182 23.2641L21.2727 34.2766Z"/><defs><linearGradient id="paint0_linear_327_234" x1="4.004" x2="36.124" y1="3.652" y2="4.237" gradientUnits="userSpaceOnUse"><stop stop-color="#6400B3"/><stop offset="1" stop-color="#1596DF"/></linearGradient></defs></svg>