<svg xmlns="http://www.w3.org/2000/svg" width="50" height="50" fill="none" viewBox="0 0 50 50"><g clip-path="url(#clip0_327_230)"><path fill="url(#paint0_linear_327_230)" d="M41.6673 30.2082C42.4961 30.2082 43.291 30.5375 43.877 31.1235C44.4631 31.7096 44.7923 32.5044 44.7923 33.3332V41.6666C44.7923 43.0479 44.2436 44.3727 43.2668 45.3494C42.2901 46.3262 40.9653 46.8749 39.584 46.8749H10.4173C9.03598 46.8749 7.71122 46.3262 6.73447 45.3494C5.75772 44.3727 5.20898 43.0479 5.20898 41.6666V33.3332C5.20898 32.5044 5.53822 31.7096 6.12428 31.1235C6.71033 30.5375 7.50518 30.2082 8.33398 30.2082C9.16279 30.2082 9.95764 30.5375 10.5437 31.1235C11.1297 31.7096 11.459 32.5044 11.459 33.3332V40.6249H38.5423V33.3332C38.5423 32.5044 38.8716 31.7096 39.4576 31.1235C40.0437 30.5375 40.8385 30.2082 41.6673 30.2082ZM27.5777 6.4999L36.0486 14.9728C36.347 15.2611 36.5851 15.6059 36.7489 15.9872C36.9127 16.3684 36.9989 16.7785 37.0025 17.1934C37.0061 17.6084 36.927 18.0199 36.7699 18.4039C36.6128 18.788 36.3807 19.1369 36.0873 19.4303C35.7939 19.7237 35.445 19.9558 35.0609 20.1129C34.6769 20.27 34.2654 20.3491 33.8504 20.3455C33.4355 20.3419 33.0254 20.2557 32.6442 20.0919C32.2629 19.9281 31.9181 19.69 31.6298 19.3916L28.1257 15.8874V33.3332C28.1257 34.162 27.7964 34.9569 27.2104 35.5429C26.6243 36.129 25.8295 36.4582 25.0007 36.4582C24.1718 36.4582 23.377 36.129 22.7909 35.5429C22.2049 34.9569 21.8757 34.162 21.8757 33.3332V15.8874L18.3715 19.3916C18.0832 19.69 17.7384 19.9281 17.3571 20.0919C16.9759 20.2557 16.5658 20.3419 16.1509 20.3455C15.7359 20.3491 15.3244 20.27 14.9404 20.1129C14.5563 19.9558 14.2074 19.7237 13.914 19.4303C13.6206 19.1369 13.3885 18.788 13.2314 18.4039C13.0743 18.0199 12.9952 17.6084 12.9988 17.1934C13.0024 16.7785 13.0886 16.3684 13.2524 15.9872C13.4162 15.6059 13.6543 15.2611 13.9527 14.9728L22.4236 6.50199C23.1072 5.81882 24.0342 5.43506 25.0007 5.43506C25.9671 5.43506 26.8941 5.81882 27.5777 6.50199V6.4999Z"/></g><defs><linearGradient id="paint0_linear_327_230" x1="5.209" x2="38.033" y1="5.435" y2="6.091" gradientUnits="userSpaceOnUse"><stop stop-color="#6400B3"/><stop offset="1" stop-color="#1596DF"/></linearGradient><clipPath id="clip0_327_230"><rect width="50" height="50" fill="#fff"/></clipPath></defs></svg>